<svg width="40" height="40" viewBox="0 0 40 40" fill="none" xmlns="http://www.w3.org/2000/svg">
<rect width="40" height="40" rx="8" fill="white" fill-opacity="0.4"/>
<path d="M20.7214 13.003L19.2554 13C15.9114 12.992 13.0084 15.709 12.9854 19V22.79C12.9854 23.58 12.8854 24.351 12.4544 25.008L12.1674 25.446C11.7304 26.11 12.2004 27 12.9854 27H20.0004H27.0154C27.8004 27 28.2694 26.11 27.8334 25.446L27.5464 25.008C27.1164 24.351 27.0154 23.579 27.0154 22.789V19.001C26.9754 15.709 24.0654 13.011 20.7214 13.003ZM23.0004 27C23.0004 27.7957 22.6843 28.5587 22.1217 29.1213C21.5591 29.6839 20.796 30 20.0004 30C19.2047 30 18.4416 29.6839 17.879 29.1213C17.3164 28.5587 17.0004 27.7957 17.0004 27" fill="white"/>
<path d="M23.0004 27C23.0004 27.7957 22.6843 28.5587 22.1217 29.1213C21.5591 29.6839 20.796 30 20.0004 30C19.2047 30 18.4416 29.6839 17.879 29.1213C17.3164 28.5587 17.0004 27.7957 17.0004 27M20.7214 13.003L19.2554 13C15.9114 12.992 13.0084 15.709 12.9854 19V22.79C12.9854 23.58 12.8854 24.351 12.4544 25.008L12.1674 25.446C11.7304 26.11 12.2004 27 12.9854 27H20.0004H27.0154C27.8004 27 28.2694 26.11 27.8334 25.446L27.5464 25.008C27.1164 24.351 27.0154 23.579 27.0154 22.789V19.001C26.9754 15.709 24.0654 13.011 20.7214 13.003Z" stroke="white" stroke-width="2" stroke-linecap="round" stroke-linejoin="round"/>
<path d="M20 10C20.5304 10 21.0391 10.2107 21.4142 10.5858C21.7893 10.9609 22 11.4696 22 12V13H18V12C18 11.4696 18.2107 10.9609 18.5858 10.5858C18.9609 10.2107 19.4696 10 20 10Z" fill="white" stroke="white" stroke-width="2" stroke-linecap="round" stroke-linejoin="round"/>
</svg>
