<svg width="25" height="24" viewBox="0 0 25 24" fill="none" xmlns="http://www.w3.org/2000/svg">
<path d="M12.5 12C15.2614 12 17.5 9.76142 17.5 7C17.5 4.23858 15.2614 2 12.5 2C9.73858 2 7.5 4.23858 7.5 7C7.5 9.76142 9.73858 12 12.5 12Z" stroke="#787878" stroke-width="2"/>
<path d="M17.5001 14H17.8521C18.5831 14.0002 19.289 14.2674 19.837 14.7513C20.385 15.2352 20.7374 15.9026 20.8281 16.628L21.2191 19.752C21.2542 20.0334 21.2291 20.3191 21.1455 20.5901C21.0618 20.8611 20.9214 21.1112 20.7337 21.3238C20.546 21.5364 20.3152 21.7066 20.0566 21.8232C19.7981 21.9398 19.5177 22.0001 19.2341 22H5.76606C5.48244 22.0001 5.20206 21.9398 4.94351 21.8232C4.68496 21.7066 4.45416 21.5364 4.26644 21.3238C4.07871 21.1112 3.93835 20.8611 3.85467 20.5901C3.77098 20.3191 3.74589 20.0334 3.78106 19.752L4.17106 16.628C4.26176 15.9022 4.61448 15.2346 5.16289 14.7506C5.71131 14.2667 6.41764 13.9997 7.14906 14H7.50006" stroke="#787878" stroke-width="2" stroke-linecap="round" stroke-linejoin="round"/>
</svg>
