<svg width="25" height="24" viewBox="0 0 25 24" fill="none" xmlns="http://www.w3.org/2000/svg">
<path d="M12.5 2C10.9087 2 9.38258 2.63214 8.25736 3.75736C7.13214 4.88258 6.5 6.4087 6.5 8C6.5 9.419 6.802 10.348 7.625 11.375L12.5 17L17.375 11.375C18.198 10.348 18.5 9.419 18.5 8C18.5 6.4087 17.8679 4.88258 16.7426 3.75736C15.6174 2.63214 14.0913 2 12.5 2Z" stroke="#787878" stroke-width="2" stroke-linecap="round" stroke-linejoin="round"/>
<path d="M5.5 15.1431C3.649 15.8701 2.5 16.8811 2.5 18.0001C2.5 20.2101 6.977 22.0001 12.5 22.0001C18.023 22.0001 22.5 20.2101 22.5 18.0001C22.5 16.8811 21.351 15.8701 19.5 15.1431" stroke="#787878" stroke-width="2" stroke-linecap="round" stroke-linejoin="round"/>
<path d="M12.5 9C13.0523 9 13.5 8.55228 13.5 8C13.5 7.44772 13.0523 7 12.5 7C11.9477 7 11.5 7.44772 11.5 8C11.5 8.55228 11.9477 9 12.5 9Z" stroke="#787878" stroke-width="2" stroke-linecap="round" stroke-linejoin="round"/>
</svg>
